<svg width="1440" height="427" viewBox="0 0 1440 427" fill="none" xmlns="http://www.w3.org/2000/svg">
<path d="M-175 353.528C-92.8326 239.356 188.76 43.2313 657.793 172.108C1126.82 300.986 1463.44 233.268 1573.12 183.3" stroke="white"/>
<path d="M-174.333 337.541C-92.1652 223.37 189.428 27.2452 658.46 156.122C1127.49 285 1464.11 217.282 1573.79 167.314" stroke="white"/>
<path d="M-161.05 307.069C-78.8825 192.897 202.71 -3.22731 671.743 125.65C1140.77 254.527 1477.39 186.81 1587.07 136.841" stroke="white"/>
<path d="M-173.665 321.555C-91.4978 207.384 190.095 11.2591 659.127 140.136C1128.16 269.014 1464.78 201.296 1574.46 151.328" stroke="white"/>
<path d="M-150.475 293.498C-68.3072 179.326 213.286 -16.798 682.318 112.079C1151.35 240.956 1487.97 173.239 1597.65 123.271" stroke="white"/>
<path d="M-149.807 277.512C-67.6398 163.34 213.953 -32.7841 682.985 96.0932C1152.02 224.97 1488.64 157.253 1598.32 107.285" stroke="white"/>
<path d="M-136.525 247.04C-54.3571 132.868 227.236 -63.2565 696.268 65.6207C1165.3 194.498 1501.92 126.781 1611.6 76.8122" stroke="white"/>
<path d="M-149.14 261.526C-66.9724 147.354 214.62 -48.7702 683.653 80.1071C1152.69 208.984 1489.3 141.267 1598.98 91.2986" stroke="white"/>
</svg>
